<mxfile host="app.diagrams.net" modified="2024-02-11T11:27:22.314Z" agent="Mozilla/5.0 (Windows NT 10.0; Win64; x64) AppleWebKit/537.36 (KHTML, like Gecko) Chrome/121.0.0.0 Safari/537.36 Edg/121.0.0.0" etag="Fcn40kxbuyrDSGwrA6gv" version="23.1.2" type="device">
  <diagram name="Page-1" id="65TRZTyE6jBAc-IG8p_M">
    <mxGraphModel dx="1423" dy="747" grid="1" gridSize="10" guides="1" tooltips="1" connect="1" arrows="1" fold="1" page="1" pageScale="1" pageWidth="827" pageHeight="1169" math="0" shadow="0">
      <root>
        <mxCell id="0" />
        <mxCell id="1" parent="0" />
        <mxCell id="R0KrfzqaYKyNT-aumEG5-22" value="" style="group;fontSize=12;" vertex="1" connectable="0" parent="1">
          <mxGeometry x="40" y="40" width="760" height="720" as="geometry" />
        </mxCell>
        <mxCell id="R0KrfzqaYKyNT-aumEG5-3" value="&lt;font style=&quot;font-size: 12px;&quot;&gt;Inmate Management Subsystem&lt;br style=&quot;font-size: 12px;&quot;&gt;&lt;/font&gt;" style="rounded=0;whiteSpace=wrap;html=1;align=center;verticalAlign=top;fillColor=none;fontSize=12;" vertex="1" parent="R0KrfzqaYKyNT-aumEG5-22">
          <mxGeometry x="152" width="608" height="720" as="geometry" />
        </mxCell>
        <mxCell id="5dWf0GG96KCBTqZGnZEv-1" value="&lt;font style=&quot;font-size: 12px;&quot;&gt;Correctional&lt;br style=&quot;font-size: 12px;&quot;&gt;Officer&lt;/font&gt;" style="shape=umlActor;verticalLabelPosition=bottom;verticalAlign=top;html=1;outlineConnect=0;fillColor=none;fontSize=12;" parent="R0KrfzqaYKyNT-aumEG5-22" vertex="1">
          <mxGeometry y="320" width="38" height="80" as="geometry" />
        </mxCell>
        <mxCell id="5dWf0GG96KCBTqZGnZEv-2" value="Initiate inmate profile creation" style="ellipse;whiteSpace=wrap;html=1;fontSize=12;fillColor=none;strokeColor=default;" parent="R0KrfzqaYKyNT-aumEG5-22" vertex="1">
          <mxGeometry x="190" y="80" width="190" height="80" as="geometry" />
        </mxCell>
        <mxCell id="R0KrfzqaYKyNT-aumEG5-5" value="Capture basic inmate information (name, age, gender, )" style="ellipse;whiteSpace=wrap;html=1;fontSize=12;fillColor=none;" vertex="1" parent="R0KrfzqaYKyNT-aumEG5-22">
          <mxGeometry x="190" y="200" width="190" height="80" as="geometry" />
        </mxCell>
        <mxCell id="R0KrfzqaYKyNT-aumEG5-6" value="Upload recent photograph" style="ellipse;whiteSpace=wrap;html=1;fontSize=12;fillColor=none;" vertex="1" parent="R0KrfzqaYKyNT-aumEG5-22">
          <mxGeometry x="190" y="320" width="190" height="80" as="geometry" />
        </mxCell>
        <mxCell id="R0KrfzqaYKyNT-aumEG5-7" value="Add additional historical context" style="ellipse;whiteSpace=wrap;html=1;fontSize=12;fillColor=none;" vertex="1" parent="R0KrfzqaYKyNT-aumEG5-22">
          <mxGeometry x="190" y="440" width="190" height="80" as="geometry" />
        </mxCell>
        <mxCell id="R0KrfzqaYKyNT-aumEG5-8" value="Review and Approve" style="ellipse;whiteSpace=wrap;html=1;fontSize=12;fillColor=none;" vertex="1" parent="R0KrfzqaYKyNT-aumEG5-22">
          <mxGeometry x="190" y="560" width="190" height="80" as="geometry" />
        </mxCell>
        <mxCell id="R0KrfzqaYKyNT-aumEG5-9" value="Create inmate profile" style="ellipse;whiteSpace=wrap;html=1;fontSize=12;fillColor=none;" vertex="1" parent="R0KrfzqaYKyNT-aumEG5-22">
          <mxGeometry x="532" y="320" width="190" height="80" as="geometry" />
        </mxCell>
        <mxCell id="R0KrfzqaYKyNT-aumEG5-10" value="&amp;lt;&amp;lt;includes&amp;gt;&amp;gt;" style="endArrow=open;endSize=12;dashed=1;html=1;rounded=0;exitX=0.5;exitY=1;exitDx=0;exitDy=0;entryX=1;entryY=0.5;entryDx=0;entryDy=0;fontSize=12;" edge="1" parent="R0KrfzqaYKyNT-aumEG5-22" source="R0KrfzqaYKyNT-aumEG5-9" target="R0KrfzqaYKyNT-aumEG5-8">
          <mxGeometry width="160" relative="1" as="geometry">
            <mxPoint x="266" y="500" as="sourcePoint" />
            <mxPoint x="570" y="500" as="targetPoint" />
          </mxGeometry>
        </mxCell>
        <mxCell id="R0KrfzqaYKyNT-aumEG5-11" value="&amp;lt;&amp;lt;includes&amp;gt;&amp;gt;" style="endArrow=open;endSize=12;dashed=1;html=1;rounded=0;exitX=0;exitY=1;exitDx=0;exitDy=0;entryX=1;entryY=0.5;entryDx=0;entryDy=0;fontSize=12;" edge="1" parent="R0KrfzqaYKyNT-aumEG5-22" source="R0KrfzqaYKyNT-aumEG5-9" target="R0KrfzqaYKyNT-aumEG5-7">
          <mxGeometry width="160" relative="1" as="geometry">
            <mxPoint x="627" y="440" as="sourcePoint" />
            <mxPoint x="418" y="630" as="targetPoint" />
          </mxGeometry>
        </mxCell>
        <mxCell id="R0KrfzqaYKyNT-aumEG5-12" value="&amp;lt;&amp;lt;includes&amp;gt;&amp;gt;" style="endArrow=open;endSize=12;dashed=1;html=1;rounded=0;exitX=0;exitY=0.5;exitDx=0;exitDy=0;entryX=1;entryY=0.5;entryDx=0;entryDy=0;fontSize=12;" edge="1" parent="R0KrfzqaYKyNT-aumEG5-22" source="R0KrfzqaYKyNT-aumEG5-9" target="R0KrfzqaYKyNT-aumEG5-6">
          <mxGeometry width="160" relative="1" as="geometry">
            <mxPoint x="646" y="460" as="sourcePoint" />
            <mxPoint x="437" y="650" as="targetPoint" />
          </mxGeometry>
        </mxCell>
        <mxCell id="R0KrfzqaYKyNT-aumEG5-13" value="&amp;lt;&amp;lt;includes&amp;gt;&amp;gt;" style="endArrow=open;endSize=12;dashed=1;html=1;rounded=0;exitX=0;exitY=0;exitDx=0;exitDy=0;entryX=1;entryY=0.5;entryDx=0;entryDy=0;fontSize=12;" edge="1" parent="R0KrfzqaYKyNT-aumEG5-22" source="R0KrfzqaYKyNT-aumEG5-9" target="R0KrfzqaYKyNT-aumEG5-5">
          <mxGeometry width="160" relative="1" as="geometry">
            <mxPoint x="665" y="480" as="sourcePoint" />
            <mxPoint x="456" y="670" as="targetPoint" />
          </mxGeometry>
        </mxCell>
        <mxCell id="R0KrfzqaYKyNT-aumEG5-14" value="&amp;lt;&amp;lt;includes&amp;gt;&amp;gt;" style="endArrow=open;endSize=12;dashed=1;html=1;rounded=0;exitX=0.5;exitY=0;exitDx=0;exitDy=0;entryX=1;entryY=0.6;entryDx=0;entryDy=0;entryPerimeter=0;fontSize=12;" edge="1" parent="R0KrfzqaYKyNT-aumEG5-22" source="R0KrfzqaYKyNT-aumEG5-9" target="5dWf0GG96KCBTqZGnZEv-2">
          <mxGeometry width="160" relative="1" as="geometry">
            <mxPoint x="684" y="500" as="sourcePoint" />
            <mxPoint x="475" y="690" as="targetPoint" />
          </mxGeometry>
        </mxCell>
        <mxCell id="R0KrfzqaYKyNT-aumEG5-15" value="" style="endArrow=none;html=1;rounded=0;exitX=0;exitY=0.5;exitDx=0;exitDy=0;fontSize=12;" edge="1" parent="R0KrfzqaYKyNT-aumEG5-22" source="5dWf0GG96KCBTqZGnZEv-2" target="5dWf0GG96KCBTqZGnZEv-1">
          <mxGeometry width="50" height="50" relative="1" as="geometry">
            <mxPoint x="-19" y="700" as="sourcePoint" />
            <mxPoint x="76" y="600" as="targetPoint" />
          </mxGeometry>
        </mxCell>
        <mxCell id="R0KrfzqaYKyNT-aumEG5-16" value="" style="endArrow=none;html=1;rounded=0;exitX=0;exitY=0.5;exitDx=0;exitDy=0;fontSize=12;" edge="1" parent="R0KrfzqaYKyNT-aumEG5-22" source="R0KrfzqaYKyNT-aumEG5-5" target="5dWf0GG96KCBTqZGnZEv-1">
          <mxGeometry width="50" height="50" relative="1" as="geometry">
            <mxPoint x="209" y="150" as="sourcePoint" />
            <mxPoint x="95" y="322" as="targetPoint" />
          </mxGeometry>
        </mxCell>
        <mxCell id="R0KrfzqaYKyNT-aumEG5-17" value="" style="endArrow=none;html=1;rounded=0;exitX=0;exitY=0.5;exitDx=0;exitDy=0;fontSize=12;" edge="1" parent="R0KrfzqaYKyNT-aumEG5-22" source="R0KrfzqaYKyNT-aumEG5-6" target="5dWf0GG96KCBTqZGnZEv-1">
          <mxGeometry width="50" height="50" relative="1" as="geometry">
            <mxPoint x="228" y="170" as="sourcePoint" />
            <mxPoint x="114" y="342" as="targetPoint" />
          </mxGeometry>
        </mxCell>
        <mxCell id="R0KrfzqaYKyNT-aumEG5-18" value="" style="endArrow=none;html=1;rounded=0;exitX=0;exitY=0.5;exitDx=0;exitDy=0;fontSize=12;" edge="1" parent="R0KrfzqaYKyNT-aumEG5-22" source="R0KrfzqaYKyNT-aumEG5-7" target="5dWf0GG96KCBTqZGnZEv-1">
          <mxGeometry width="50" height="50" relative="1" as="geometry">
            <mxPoint x="247" y="190" as="sourcePoint" />
            <mxPoint x="133" y="362" as="targetPoint" />
          </mxGeometry>
        </mxCell>
        <mxCell id="R0KrfzqaYKyNT-aumEG5-19" value="" style="endArrow=none;html=1;rounded=0;exitX=0;exitY=0.5;exitDx=0;exitDy=0;fontSize=12;" edge="1" parent="R0KrfzqaYKyNT-aumEG5-22" source="R0KrfzqaYKyNT-aumEG5-8" target="5dWf0GG96KCBTqZGnZEv-1">
          <mxGeometry width="50" height="50" relative="1" as="geometry">
            <mxPoint x="266" y="210" as="sourcePoint" />
            <mxPoint x="152" y="382" as="targetPoint" />
          </mxGeometry>
        </mxCell>
        <mxCell id="R0KrfzqaYKyNT-aumEG5-20" value="&lt;span style=&quot;font-size: 12px;&quot;&gt;Supervisor /&lt;br style=&quot;font-size: 12px;&quot;&gt;Administrator&lt;/span&gt;" style="shape=umlActor;verticalLabelPosition=bottom;verticalAlign=top;html=1;outlineConnect=0;fillColor=none;fontSize=12;" vertex="1" parent="R0KrfzqaYKyNT-aumEG5-22">
          <mxGeometry y="560" width="38" height="80" as="geometry" />
        </mxCell>
        <mxCell id="R0KrfzqaYKyNT-aumEG5-21" value="" style="endArrow=none;html=1;rounded=0;exitX=0;exitY=0.5;exitDx=0;exitDy=0;fontSize=12;" edge="1" parent="R0KrfzqaYKyNT-aumEG5-22" source="R0KrfzqaYKyNT-aumEG5-8" target="R0KrfzqaYKyNT-aumEG5-20">
          <mxGeometry width="50" height="50" relative="1" as="geometry">
            <mxPoint x="570" y="900" as="sourcePoint" />
            <mxPoint x="456" y="1072" as="targetPoint" />
          </mxGeometry>
        </mxCell>
      </root>
    </mxGraphModel>
  </diagram>
</mxfile>
